<?xml version="1.0" encoding="UTF-8"?>
<svg id="Calque_1" data-name="Calque 1" xmlns="http://www.w3.org/2000/svg" xmlns:xlink="http://www.w3.org/1999/xlink" viewBox="0 0 462.71 132.32">
  <defs>
    <style>
      .cls-1 {
        fill: #fff;
      }

      .cls-2 {
        fill: url(#Dégradé_sans_nom_7);
      }
    </style>
    <linearGradient id="Dégradé_sans_nom_7" data-name="Dégradé sans nom 7" x1="315.41" y1="73.2" x2="462.37" y2="73.2" gradientUnits="userSpaceOnUse">
      <stop offset="0" stop-color="#fff"/>
      <stop offset="1" stop-color="#e72e89"/>
    </linearGradient>
  </defs>
  <path class="cls-1" d="m63.03,97.98c-5.3,12.64-16.69,19.81-30.27,19.81C5.15,117.79,0,96.89,0,73.64S5.15,29.49,32.76,29.49c13.42,0,24.65,7.49,29.95,19.81,1.72,3.59,2.81,7.64,2.81,11.7s-1.56,9.67-6.71,9.67h-16.22c-7.18,0-5.77-9.2-8.42-13.57-.31-.16-.78-.47-1.09-.47-.62,0-1.25,0-1.87.16-1.87,3.9-2.18,12.32-2.18,16.85,0,4.21,0,12.64,2.03,16.38.47.47,1.25.62,2.03.62,4.84,0,.78-15.29,9.83-15.29h16.07c5.3,0,6.71,6.4,6.71,10.76,0,4.06-.94,8.11-2.65,11.86Z"/>
  <path class="cls-1" d="m123.04,115.92h-15.76c-3.28,0-5.3-2.34-6.08-5.3-4.99,5.3-10.3,7.18-17.47,7.18-14.04,0-20.59-13.26-20.59-25.74,0-21.69,17.63-30.11,36.51-32.61v-2.18c0-2.34-1.4-3.12-3.59-3.12-4.52,0-4.37,6.24-9.36,6.24h-14.66c-3.43,0-6.24-2.34-6.24-5.93,0-.62,0-1.09.16-1.56,3.59-16.07,14.82-23.4,30.89-23.4,22.62,0,31.83,14.35,31.83,35.57v29.95c0,3.59.62,7.18.62,10.76,0,4.37-.62,10.14-6.24,10.14Zm-23.4-34.95c-3.59.94-7.49,3.12-7.49,7.33,0,1.25.16,2.96,1.87,2.96,1.25,0,4.52-2.34,5.62-3.12v-7.18Z"/>
  <path class="cls-1" d="m154.13,117.79c-15.6,0-27.77-12.48-27.77-28.08,0-3.74,2.81-5.46,6.24-5.46h13.88c6.4,0,5.93,7.96,8.42,7.96,1.56,0,3.12-.62,2.96-2.5-2.81-3.28-9.83-5.46-13.88-7.33-10.45-5.15-17.32-12.79-17.32-24.96,0-17.47,12.48-27.77,29.33-27.77,10.61,0,20.28,6.4,25.27,15.76,1.4,2.81,2.5,5.93,2.5,9.2,0,3.9-1.87,6.86-6.08,6.86h-13.57c-4.68,0-6.08-5.62-8.11-5.62-.47,0-.94.16-1.4.31-.16.31-.16.47-.16.78,0,2.03,11.7,5.93,13.73,6.71,11.08,4.84,17.47,12.64,17.47,24.96,0,19.81-12.64,29.17-31.51,29.17Z"/>
  <path class="cls-1" d="m212.66,118.72h-5.3c-15.44,0-26.52-8.89-26.52-24.96v-32.29h-1.87c-3.28,0-6.24-2.96-6.24-6.24v-14.66c0-3.28-9.85-6.24-6.57-6.24h14.68V12.95c0-3.28,2.96-6.24,6.24-6.24h16.54c3.28,0,6.24,2.96,6.24,6.24v21.37h2.81c3.28,0,6.24,2.96,6.24,6.24v14.66c0,3.28-2.96,6.24-6.24,6.24h-2.81v26.99c0,1.87,1.09,2.5,2.81,2.5,3.28,0,6.24,2.96,6.24,6.24v15.29c0,3.28-2.96,6.24-6.24,6.24Z"/>
  <path class="cls-1" d="m274.52,84.09h-30.58c0,3.28-.16,10.14,4.68,10.14s3.59-7.8,9.67-7.8h15.76c4.68,0,6.4,4.06,6.4,8.11,0,3.43-1.09,6.86-2.81,9.98-5.62,10.61-17,15.6-28.71,15.6-27.77,0-34.32-20.28-34.32-44.15,0-22.15,8.74-44.15,34.32-44.15,22.62,0,31.83,19.66,31.83,39.63v7.8c0,3.59-3.28,4.68-6.24,4.84Zm-27.15-27.61c-4.37,0-3.74,4.52-3.9,7.49h8.11c-.16-3.28.47-7.49-4.21-7.49Z"/>
  <path class="cls-1" d="m302.64,118.25h-16.54c-3.28,0-6.24-2.96-6.24-6.24V6.24c0-3.28,2.96-6.24,6.24-6.24h16.54c3.28,0,6.24,2.96,6.24,6.24v105.77c0,3.28-2.96,6.24-6.24,6.24Z"/>
  <path class="cls-2" d="m456.47,14.07h-19.97c-3.28,0-6.24,2.96-6.24,6.24v9.3c-4.94-10.38-14.86-15.54-31.49-15.54h-26.37c-3.28,0-6.24,2.96-6.24,6.24v42.51l-7.52-43.6c-.47-2.5-3.59-5.15-6.24-5.15h-26.21c-2.65,0-5.77,2.65-6.24,5.15l-18.25,105.77v1.25c0,3.59,2.65,6.08,6.24,6.08h18.57c6.86,0,6.71-9.21,7.49-14.04h10.61c.78,4.84.62,14.04,7.49,14.04h18.56c.32,0,.64-.03.94-.07.27.04.53.07.81.07h19.03c3.28,0,6.24-2.96,6.24-6.24v-37.44c17.73,0,27.69-4.02,32.58-14.06v51.5c0,3.28,2.96,6.24,6.24,6.24h19.97c3.28,0,6.24-2.96,6.24-6.24V20.31c0-3.28-2.96-6.24-6.24-6.24Zm-120.14,76.13l2.96-20.75,2.96,20.75h-5.93Zm67.27-38.07c0,4.52-.47,8.27-5.93,9.05v-20.28c4.99.62,5.93,2.65,5.93,7.33v3.9Z"/>
  <rect class="cls-1" y="124.97" width="295.21" height="4.67"/>
</svg>